<svg width="592" height="736" viewBox="0 0 592 736" fill="none" xmlns="http://www.w3.org/2000/svg">
<g filter="url(#filter0_di_151_87)">
<path d="M257.87 466.087V13L217.87 47.754C214.638 50.5616 212.783 54.6322 212.783 58.913V516.348H457.435L430.034 545.66C427.239 548.65 423.329 550.348 419.235 550.348H174.348V90.6087L49.4823 211.907C46.6169 214.69 45 218.515 45 222.51V669.348C45 677.512 51.6184 684.13 59.7826 684.13H351.399C355.396 684.13 359.223 682.512 362.007 679.644L406.435 633.87H91.5652V244.199C91.5652 240.055 93.3043 236.101 96.3589 233.301L127.043 205.174V583.609C127.043 591.773 133.662 598.391 141.826 598.391H438.573C442.596 598.391 446.445 596.752 449.232 593.851L572 466.087H257.87Z" fill="url(#paint0_linear_151_87)"/>
</g>
<defs>
<filter id="filter0_di_151_87" x="0.176186" y="0.193197" width="591.034" height="735.164" filterUnits="userSpaceOnUse" color-interpolation-filters="sRGB">
<feFlood flood-opacity="0" result="BackgroundImageFix"/>
<feColorMatrix in="SourceAlpha" type="matrix" values="0 0 0 0 0 0 0 0 0 0 0 0 0 0 0 0 0 0 127 0" result="hardAlpha"/>
<feOffset dx="-12.8068" dy="19.2102"/>
<feGaussianBlur stdDeviation="16.0085"/>
<feComposite in2="hardAlpha" operator="out"/>
<feColorMatrix type="matrix" values="0 0 0 0 0 0 0 0 0 0 0 0 0 0 0 0 0 0 0.4 0"/>
<feBlend mode="normal" in2="BackgroundImageFix" result="effect1_dropShadow_151_87"/>
<feBlend mode="normal" in="SourceGraphic" in2="effect1_dropShadow_151_87" result="shape"/>
<feColorMatrix in="SourceAlpha" type="matrix" values="0 0 0 0 0 0 0 0 0 0 0 0 0 0 0 0 0 0 127 0" result="hardAlpha"/>
<feOffset dx="-12.8068" dy="19.2102"/>
<feGaussianBlur stdDeviation="14.7826"/>
<feComposite in2="hardAlpha" operator="arithmetic" k2="-1" k3="1"/>
<feColorMatrix type="matrix" values="0 0 0 0 0 0 0 0 0 0 0 0 0 0 0 0 0 0 0.25 0"/>
<feBlend mode="normal" in2="shape" result="effect2_innerShadow_151_87"/>
</filter>
<linearGradient id="paint0_linear_151_87" x1="-203.452" y1="684.077" x2="717.357" y2="-55.5163" gradientUnits="userSpaceOnUse">
<stop offset="0.322431" stop-color="#F522ED"/>
<stop offset="0.613699" stop-color="#FE53ED"/>
</linearGradient>
</defs>
</svg>
